HIERARCHY
ROOT Hips
{
	OFFSET 0.00000 0.00000 0.00000
	CHANNELS 6 Xposition Yposition Zposition Zrotation Yrotation Xrotation 
	JOINT LHipJoint
	{
		OFFSET 0 0 0
		CHANNELS 3 Zrotation Yrotation Xrotation
		JOINT LeftUpLeg
		{
			OFFSET 1.30186 -1.90722 0.65024
			CHANNELS 3 Zrotation Yrotation Xrotation
			JOINT LeftLeg
			{
				OFFSET 2.56413 -7.04489 0.00000
				CHANNELS 3 Zrotation Yrotation Xrotation
				JOINT LeftFoot
				{
					OFFSET 2.79321 -7.67428 0.00000
					CHANNELS 3 Zrotation Yrotation Xrotation
					JOINT LeftToeBase
					{
						OFFSET 0.15723 -0.43198 2.08537
						CHANNELS 3 Zrotation Yrotation Xrotation
						End Site
						{
							OFFSET 0.00000 -0.00000 1.07411
						}
					}
				}
			}
		}
	}
	JOINT RHipJoint
	{
		OFFSET 0 0 0
		CHANNELS 3 Zrotation Yrotation Xrotation
		JOINT RightUpLeg
		{
			OFFSET -1.28627 -1.90723 0.65024
			CHANNELS 3 Zrotation Yrotation Xrotation
			JOINT RightLeg
			{
				OFFSET -2.56567 -7.04913 0.00000
				CHANNELS 3 Zrotation Yrotation Xrotation
				JOINT RightFoot
				{
					OFFSET -2.75597 -7.57198 0.00000
					CHANNELS 3 Zrotation Yrotation Xrotation
					JOINT RightToeBase
					{
						OFFSET -0.17500 -0.48081 2.22901
						CHANNELS 3 Zrotation Yrotation Xrotation
						End Site
						{
							OFFSET -0.00000 -0.00000 1.14762
						}
					}
				}
			}
		}
	}
	JOINT LowerBack
	{
		OFFSET 0 0 0
		CHANNELS 3 Zrotation Yrotation Xrotation
		JOINT Spine
		{
			OFFSET -0.04522 2.07467 -0.16566
			CHANNELS 3 Zrotation Yrotation Xrotation
			JOINT Spine1
			{
				OFFSET -0.01178 2.08825 -0.05393
				CHANNELS 3 Zrotation Yrotation Xrotation
				JOINT Neck
				{
					OFFSET 0 0 0
					CHANNELS 3 Zrotation Yrotation Xrotation
					JOINT Neck1
					{
						OFFSET -0.05182 1.80489 0.16014
						CHANNELS 3 Zrotation Yrotation Xrotation
						JOINT Head
						{
							OFFSET 0.14739 1.78840 -0.33342
							CHANNELS 3 Zrotation Yrotation Xrotation
							End Site
							{
								OFFSET 0.04364 1.83899 -0.13460
							}
						}
					}
				}
				JOINT LeftShoulder
				{
					OFFSET 0 0 0
					CHANNELS 3 Zrotation Yrotation Xrotation
					JOINT LeftArm
					{
						OFFSET 3.01264 1.29090 -0.06579
						CHANNELS 3 Zrotation Yrotation Xrotation
						JOINT LeftForeArm
						{
							OFFSET 5.55680 -0.00000 0.00000
							CHANNELS 3 Zrotation Yrotation Xrotation
							JOINT LeftHand
							{
								OFFSET 3.63979 -0.00000 -0.00000
								CHANNELS 3 Zrotation Yrotation Xrotation
								JOINT LeftFingerBase
								{
									OFFSET 0 0 0
									CHANNELS 3 Zrotation Yrotation Xrotation
									JOINT LeftHandIndex1
									{
										OFFSET 0.56942 -0.00000 -0.00000
										CHANNELS 3 Zrotation Yrotation Xrotation
										End Site
										{
											OFFSET 0.45908 -0.00000 -0.00000
										}
									}
								}
								JOINT LThumb
								{
									OFFSET 0 0 0
									CHANNELS 3 Zrotation Yrotation Xrotation
									End Site
									{
										OFFSET 0.46609 -0.00000 0.46609
									}
								}
							}
						}
					}
				}
				JOINT RightShoulder
				{
					OFFSET 0 0 0
					CHANNELS 3 Zrotation Yrotation Xrotation
					JOINT RightArm
					{
						OFFSET -3.15796 1.37283 -0.36748
						CHANNELS 3 Zrotation Yrotation Xrotation
						JOINT RightForeArm
						{
							OFFSET -5.34339 -0.00000 0.00000
							CHANNELS 3 Zrotation Yrotation Xrotation
							JOINT RightHand
							{
								OFFSET -3.65101 -0.00000 -0.00000
								CHANNELS 3 Zrotation Yrotation Xrotation
								JOINT RightFingerBase
								{
									OFFSET 0 0 0
									CHANNELS 3 Zrotation Yrotation Xrotation
									JOINT RightHandIndex1
									{
										OFFSET -0.69425 -0.00000 -0.00000
										CHANNELS 3 Zrotation Yrotation Xrotation
										End Site
										{
											OFFSET -0.55972 -0.00000 -0.00000
										}
									}
								}
								JOINT RThumb
								{
									OFFSET 0 0 0
									CHANNELS 3 Zrotation Yrotation Xrotation
									End Site
									{
										OFFSET -0.56827 -0.00000 0.56827
									}
								}
							}
						}
					}
				}
			}
		}
	}
}
MOTION
Frames: 15
Frame Time: 0.0229885
0.00 0.00 0.00 0 0 0 0 0 0 -21 0 0 0 0 0 0 0 0 0 0 0 0 0 0 21 0 0 0 0 0 0 0 0 0 0 0 0 0 0 0 0 0 0 0 0 0 0 -16 0 0 21 0 0 11 0 0 0 -8 0 0 0 0 0 0 0 0 0 0 0 0 0 0 0 0 0 0 0 0 8 0 0 0 0 0 0 0 0 0 0 0 0 0 0 0 0 0
0.00 0.00 0.00 2.7292 -8.3705 2.1856 0.0000 0.0000 0.0000 -18.1678 -5.1015 0.6115 0.3050 3.5509 9.8165 0.2828 8.2224 -16.2108 0.2129 -2.9708 -8.1973 0.0000 0.0000 0.0000 14.6941 11.5546 1.6340 -0.4744 -4.4174 12.2541 0.2512 -12.0141 -13.0696 -0.0000 0.0007 -0.0019 -4.7596 -0.2194 -1.4503 -2.0631 -0.1805 0.3798 0.5442 -0.1185 1.2124 -1.8713 -2.8732 -11.2041 2.7018 -4.4159 25.2390 0.7371 -1.9426 9.9556 -0.0000 -0.0000 0.0000 -65.2695 -23.9586 24.1741 74.4122 -59.0617 -46.5431 -0.0000 0.0000 -27.5260 24.3617 18.2134 8.0556 -7.1250 0.0000 -0.0000 -3.7003 49.8038 -0.4388 -0.0000 -0.0000 0.0000 56.2967 18.4479 27.4308 -80.2016 59.6341 -51.5247 0.0000 -0.0000 -5.6521 -22.1475 36.2217 -13.5236 7.1250 -0.0000 -0.0000 6.0994 8.1646 6.9406
0.00 0.00 0.00 1.6805 -7.6080 2.1341 0.0000 0.0000 0.0000 -17.2768 -5.4342 0.1851 0.3798 3.9578 10.9581 0.3687 7.3013 -16.4090 0.2868 -3.4443 -9.5182 0.0000 0.0000 0.0000 15.6142 11.1222 2.7015 -0.3684 -3.8987 10.7919 0.4055 -13.1565 -12.2255 -0.0193 -0.8972 2.4659 -4.0437 0.4418 -1.3065 -1.7232 0.6413 -0.5157 0.5081 0.3223 0.1788 -4.0984 -3.7000 -9.1544 3.2645 -5.3932 27.1056 1.2295 -2.5614 10.3510 0.0000 0.0000 0.0000 -79.5824 -27.6571 32.1340 92.2907 -59.9802 -61.9837 -0.0000 0.0000 -47.7733 21.9520 19.6587 7.7218 -7.1250 0.0000 -0.0000 -6.4529 50.9333 -0.9467 0.0000 0.0000 0.0000 69.9520 22.8091 27.9194 -95.3521 59.8915 -64.6334 0.0000 -0.0000 -17.7031 -30.9428 41.2857 -21.5818 7.1250 -0.0000 -0.0000 2.7197 15.6491 3.3557
0.00 0.00 0.00 2.1306 -7.2197 1.3833 0.0000 0.0000 0.0000 -18.5478 -5.4930 0.2341 0.4764 4.4263 12.2793 0.4615 6.1551 -16.5550 0.2625 -3.2964 -9.1051 0.0000 0.0000 0.0000 14.2590 9.8556 3.3613 -0.3428 -3.7620 10.4080 0.3637 -12.4398 -11.5057 -0.0000 -0.0323 0.0889 -5.2059 0.4703 -2.5091 -1.8378 0.8229 0.4422 1.0599 0.3642 1.8176 -3.4877 -3.2801 -10.7149 1.6201 -4.4266 28.1351 0.6267 -2.2210 10.9449 0.0000 0.0000 0.0000 -87.7147 -26.2131 50.1320 102.7286 -59.3789 -71.0003 -0.0000 0.0000 -20.5069 18.8852 14.5339 4.9067 -7.1250 0.0000 -0.0000 -8.0414 45.1493 -0.0298 0.0000 0.0000 0.0000 82.8467 24.3328 44.0051 -104.2550 59.2181 -72.3127 0.0000 -0.0000 -2.4714 -27.7730 46.1320 -20.7904 7.1250 -0.0000 -0.0000 5.5871 19.4406 7.1549
0.00 0.00 0.00 0.5082 -6.1245 0.6699 0.0000 0.0000 0.0000 -18.6040 -5.6610 0.5885 0.5286 4.6591 12.9389 0.5067 4.9138 -16.1439 0.1003 -2.0424 -5.6227 0.0000 0.0000 0.0000 13.8710 8.7902 2.7735 -0.4824 -4.4540 12.3577 0.3300 -11.2135 -9.2840 -0.1078 2.1169 -5.8289 -5.3116 0.9568 -2.4738 -2.2014 1.4676 0.2433 0.7665 0.6945 1.5636 -4.3174 -3.4703 -8.9174 3.7755 -4.9899 23.4283 1.4923 -2.3505 8.9950 -0.0000 0.0000 0.0000 -88.0478 -30.9758 63.4091 86.6794 -59.9583 -57.1247 -0.0000 -0.0000 8.9865 29.0959 17.1934 9.3415 -7.1250 0.0000 -0.0000 1.1726 49.4758 0.1294 -0.0000 0.0000 0.0000 83.5515 27.3126 52.5041 -89.0727 59.9968 -59.1969 0.0000 -0.0000 -1.5795 -28.4505 32.9496 -16.4205 7.1250 -0.0000 -0.0000 2.0621 6.3964 2.2803
0.00 0.00 0.00 -0.3562 -3.9414 -1.9895 0.0000 0.0000 0.0000 -20.8497 -4.7207 2.7013 0.6007 4.9612 13.7981 0.5388 2.8968 -15.2227 0.0734 -1.7476 -4.8086 0.0000 0.0000 0.0000 10.8360 5.5143 -3.3377 -2.0310 -8.9304 25.5778 0.1033 -6.3651 -5.3615 -0.9257 6.1296 -17.1609 -7.4409 0.5883 -1.9349 -3.5105 0.9737 -0.1427 0.5734 0.4611 0.8774 -4.3441 -4.1911 -4.5076 11.8031 -8.1161 23.9872 4.0229 -3.1688 8.8571 0.0000 -0.0000 0.0000 -83.2491 -27.6052 59.6037 107.5373 -58.8054 -75.1268 -0.0000 0.0000 -58.7359 19.6816 26.0497 8.9271 -7.1250 0.0000 -0.0000 -11.2704 57.0586 -3.3589 0.0000 -0.0000 0.0000 58.4028 27.9184 42.9210 -104.8794 59.1467 -72.8491 0.0000 -0.0000 -3.7358 -26.6539 44.8343 -19.4887 7.1250 -0.0000 -0.0000 5.7423 17.8622 7.2564
0.00 0.00 0.00 -1.0079 -3.9653 -3.3655 0.0000 0.0000 0.0000 -21.2656 -3.6883 2.7083 0.7426 5.5047 15.3538 0.5635 2.0940 -15.0930 0.0153 -0.7998 -2.1981 0.0000 0.0000 0.0000 9.1509 6.8591 -9.7247 -3.9326 -12.0701 35.9805 0.0099 -2.5913 -2.9635 -0.1743 2.6895 -7.4154 -11.0657 1.1014 0.2277 -3.8598 1.5313 1.1601 2.1820 0.6801 0.9042 -3.7935 -5.4957 -3.1377 17.4286 -11.3016 23.0910 5.6172 -4.2491 8.9407 -0.0000 0.0000 0.0000 -98.8988 -20.6705 68.7375 113.9663 -57.7143 -80.5962 -0.0000 0.0000 -30.3888 31.9887 15.2454 9.3270 -7.1250 0.0000 -0.0000 4.2383 47.7488 0.2879 -0.0000 0.0000 0.0000 81.2536 22.2836 46.6361 -115.1899 57.4611 -81.6291 0.0000 -0.0000 -9.0034 -34.5119 38.6959 -23.2614 7.1250 -0.0000 -0.0000 0.2260 14.2100 0.2745
0.00 0.00 0.00 -2.5105 -5.3327 -2.6328 0.0000 0.0000 0.0000 -19.6874 -3.1021 2.5726 0.6547 5.1753 14.4092 0.5674 2.3321 -15.2665 0.0049 0.4501 1.2367 0.0000 0.0000 0.0000 10.6354 9.3459 -5.8422 -1.3600 -7.3815 20.8507 0.0435 -4.8960 -5.2030 -0.0318 -1.1515 3.1658 -9.9407 1.3955 1.0118 -3.2455 1.8465 1.6199 2.1884 0.8307 0.9143 -4.8255 -6.3927 -5.2131 17.4986 -11.8641 19.4278 5.5796 -4.6657 8.2185 -0.0000 0.0000 0.0000 -91.5728 -17.3910 62.7185 114.8088 -57.5416 -81.3077 -0.0000 0.0000 -11.1064 38.8560 14.1606 11.1496 -7.1250 0.0000 -0.0000 11.0480 47.6218 0.7230 -0.0000 0.0000 0.0000 77.0463 19.1913 40.4105 -118.5506 56.6839 -84.4503 0.0000 -0.0000 -1.4490 -30.4349 41.2254 -21.1657 7.1250 -0.0000 -0.0000 2.9529 15.4297 3.6362
0.00 0.00 0.00 -1.2198 -4.5855 -1.1507 0.0000 0.0000 0.0000 -18.6062 -3.1547 3.6640 0.5223 4.6318 12.8613 0.5890 1.8440 -15.2816 0.1075 -2.1137 -5.8200 0.0000 0.0000 0.0000 11.8035 10.1308 0.6029 -0.2907 -3.4670 9.5817 0.1354 -6.5581 -3.2351 -0.1180 2.2147 -6.0993 -9.0391 0.2978 -2.4419 -4.2862 0.7989 1.0453 0.6534 0.2882 2.4037 -8.3949 -7.6151 -7.0391 13.2315 -12.1123 19.3126 4.6003 -5.2992 8.4719 -0.0000 -0.0000 0.0000 -64.4831 -26.0988 57.1587 128.6324 -53.5324 -92.7298 -0.0000 0.0000 -10.9910 27.9396 8.1227 4.2855 -7.1250 0.0000 -0.0000 0.9425 39.1553 -0.1357 -0.0000 -0.0000 0.0000 54.3148 17.2924 41.6006 -125.9279 54.5114 -90.5410 0.0000 -0.0000 -1.8500 -30.3967 44.3660 -22.3028 7.1250 -0.0000 -0.0000 3.8571 18.5197 4.8914
0.00 0.00 0.00 -0.2826 -4.4192 -0.2485 0.0000 0.0000 0.0000 -18.3264 -3.6324 3.7567 0.4965 4.5176 12.5376 0.6385 1.7995 -15.8515 0.0767 -1.7871 -4.9176 0.0000 0.0000 0.0000 12.5081 9.3899 0.9799 -0.2214 -3.0292 8.3600 0.1534 -7.2950 -5.1091 -0.0110 0.6782 -1.8637 -8.8705 -0.4468 -2.3493 -5.3627 -0.2178 0.7081 -0.5982 -0.1888 2.0742 -14.8451 -11.7598 -2.4872 13.3946 -16.6648 10.8613 5.2966 -8.1751 6.0671 0.0000 0.0000 0.0000 -29.9282 -14.1456 21.7315 131.4815 -52.3802 -95.0042 -0.0000 0.0000 -31.8133 23.0770 12.5407 5.2855 -7.1250 0.0000 -0.0000 -3.8334 43.5395 0.1384 0.0000 0.0000 0.0000 29.7107 3.6734 13.1271 -118.6417 56.6611 -84.5264 0.0000 -0.0000 -15.5225 -33.4760 41.7746 -23.7758 7.1250 -0.0000 -0.0000 1.6241 16.9664 2.0280
0.00 0.00 0.00 -0.5311 -4.4744 0.3304 0.0000 0.0000 0.0000 -17.8409 -4.4052 3.6554 0.4773 4.4304 12.2907 0.6439 2.4874 -16.2610 0.0527 -1.4814 -4.0744 0.0000 0.0000 0.0000 13.0660 9.3993 0.9034 -0.1795 -2.7287 7.5245 0.1645 -7.4824 -5.0171 -0.0511 1.4592 -4.0131 -8.4291 -0.6343 -2.4237 -5.4473 -0.4846 0.5523 -0.9386 -0.3094 1.9627 -16.2885 -12.4872 -0.6428 14.1010 -17.6210 7.8782 5.7618 -8.7562 5.1733 0.0000 -0.0000 0.0000 -19.3029 -8.7057 10.9338 123.6471 -55.2571 -88.6752 -0.0000 0.0000 -39.4477 22.5819 14.7277 6.0354 -7.1250 0.0000 -0.0000 -4.6680 45.8183 -0.0945 0.0000 -0.0000 0.0000 23.7770 1.5034 6.1914 -100.8314 59.5520 -69.3661 0.0000 -0.0000 -16.1743 -35.2080 41.8959 -25.2301 7.1250 -0.0000 -0.0000 0.8251 17.6899 1.0368
0.00 0.00 0.00 0.1588 -4.4526 0.1914 0.0000 0.0000 0.0000 -18.5183 -4.8684 4.7076 0.3913 4.0169 11.1243 0.6185 3.2077 -16.3659 0.0260 -1.0412 -2.8621 0.0000 0.0000 0.0000 12.4840 9.4254 0.8250 -0.2006 -2.8840 7.9560 0.1383 -7.2590 -5.9244 -0.0504 1.4483 -3.9832 -9.2615 -0.8124 -2.1182 -5.6925 -0.7117 0.7662 -0.7463 -0.4369 2.0338 -16.5454 -12.8499 -0.3309 14.2367 -18.0068 6.3202 5.8405 -8.9643 4.7434 0.0000 -0.0000 0.0000 -13.2796 -6.3202 4.8886 111.2261 -58.2272 -78.2729 -0.0000 0.0000 -42.7833 20.9375 15.0332 5.6676 -7.1250 0.0000 -0.0000 -6.2599 45.9280 -0.1439 0.0000 -0.0000 0.0000 19.3060 0.6285 1.8240 -83.0224 59.8152 -53.9609 0.0000 -0.0000 -17.4184 -36.0414 41.9081 -25.9208 7.1250 -0.0000 -0.0000 0.4284 18.0024 0.5399
0.00 0.00 0.00 0.1810 -4.9983 0.3648 0.0000 0.0000 0.0000 -18.3894 -4.8340 4.6233 0.3875 3.9973 11.0689 0.6304 3.6445 -16.7638 0.0593 -1.5719 -4.3241 0.0000 0.0000 0.0000 12.7140 9.8525 1.1380 -0.1633 -2.6036 7.1770 0.1618 -7.5327 -5.4015 -0.0391 1.2765 -3.5099 -9.3175 -0.8846 -2.1376 -5.7669 -0.8116 0.6862 -0.7964 -0.4835 1.9665 -16.9143 -13.1917 0.5436 14.1234 -18.4639 5.1325 5.8879 -9.2359 4.3334 -0.0000 -0.0000 0.0000 -8.2742 -4.3077 0.5599 93.1183 -59.9632 -62.7002 -0.0000 0.0000 -44.6957 20.2827 15.4657 5.6283 -7.1250 0.0000 -0.0000 -6.9654 46.2957 -0.2238 -0.0000 -0.0000 0.0000 15.3489 0.9387 -1.7662 -63.7520 57.2296 -37.4800 0.0000 -0.0000 -17.6253 -37.0080 42.4565 -26.9679 7.1250 -0.0000 -0.0000 0.1440 18.9058 0.1829
0.00 0.00 0.00 -0.1608 -5.2371 0.7116 0.0000 0.0000 0.0000 -17.8461 -4.8841 4.3456 0.3857 3.9884 11.0440 0.6464 3.5982 -16.9186 0.0394 -1.2811 -3.5225 0.0000 0.0000 0.0000 13.1646 9.8067 1.8037 -0.0910 -1.9460 5.3564 0.1794 -7.6973 -4.7313 -0.0190 0.8911 -2.4492 -8.7617 -0.8976 -2.6638 -5.6253 -0.7610 0.8471 -0.9633 -0.4687 2.4219 -17.6354 -13.5424 1.5004 14.0799 -18.9253 3.5636 6.0260 -9.5076 3.8396 0.0000 0.0000 0.0000 -3.1370 -3.3267 -4.6389 68.1728 -58.1210 -41.2164 -0.0000 0.0000 -42.6265 20.8972 15.1747 5.7074 -7.1250 0.0000 -0.0000 -6.3282 46.0715 -0.1680 0.0000 0.0000 0.0000 9.9472 2.0716 -7.3592 -42.0242 49.2245 -19.9589 0.0000 -0.0000 -15.3652 -39.0099 42.4445 -28.6653 7.1250 -0.0000 -0.0000 -0.8068 19.6637 -1.0313
0.00 0.00 0.00 0.4273 -5.8858 0.5006 0.0000 0.0000 0.0000 -18.1889 -4.4184 3.9764 0.4131 4.1260 11.4314 0.6237 3.9345 -16.8661 0.0687 -1.6907 -4.6516 0.0000 0.0000 0.0000 12.7899 10.0078 3.0718 -0.0290 -1.1002 3.0246 0.2057 -8.0648 -3.9438 -0.0013 0.2321 -0.6377 -8.3457 -0.8614 -2.0352 -5.7789 -0.7908 1.0288 -1.3444 -0.4757 2.2485 -17.5908 -13.3227 0.4619 11.4018 -18.3036 4.8457 5.1817 -9.2052 4.0273 0.0000 0.0000 0.0000 5.5914 -4.3428 -17.7135 27.6412 -38.7838 -9.8981 -0.0000 0.0000 -29.8912 23.6159 17.6139 7.5367 -7.1250 0.0000 -0.0000 -4.2913 49.0436 -0.4287 0.0000 0.0000 0.0000 -0.3507 10.1125 -42.7831 -13.2818 21.6987 -2.5565 0.0000 0.0000 1.8990 -37.1131 34.6143 -23.2588 7.1250 -0.0000 -0.0000 -2.2313 10.8702 -2.6138
